<?xml version="1.0"?>
<svg version="1.1" xmlns="http://www.w3.org/2000/svg" width="400" height="70" style=""><path fill="#f77307" d="M16.19140625,29.43359375q0-0.234375,0.224609375-0.3515625t0.48828125-0.17578125t0.478515625-0.05859375l0.21484375,0q0.68359375,0,0.986328125,0.3125t0.732421875,0.80078125q2.9296875,4.23828125,5.37109375,8.720703125t4.70703125,9.072265625q0.1953125-5.3515625,0.400390625-10.771484375t0.517578125-10.751953125q0-0.234375,0.224609375-0.390625t0.5078125-0.234375t0.576171875-0.09765625t0.44921875-0.01953125q0.234375,0,0.517578125,0.01953125t0.56640625,0.1171875t0.46875,0.234375t0.185546875,0.37109375q0.078125,0.83984375,0.087890625,1.689453125t0.009765625,1.689453125q0,6.2890625-0.2734375,12.32421875t-0.2734375,12.1875l0,1.40625q0,0.078125-0.078125,0.234375q0.0390625,0.15625,0.1171875,0.341796875t0.078125,0.263671875q0,0.3125-0.322265625,0.46875t-0.703125,0.244140625t-0.673828125,0.087890625t-0.21484375,0q-0.99609375,0-1.6796875-0.546875t-0.68359375-1.30859375q-1.4453125-3.2421875-2.880859375-6.435546875t-2.998046875-6.357421875q-0.99609375-1.9921875-2.001953125-3.994140625t-2.158203125-3.876953125q0.0390625,0.0390625,0.0390625,0.1171875q0.1953125,1.953125,0.419921875,3.896484375t0.341796875,3.896484375q0.078125,1.6796875,0.17578125,3.3984375t0.3125,3.3984375q0,0.64453125-0.400390625,0.8203125t-0.927734375,0.17578125q-0.44921875,0-0.849609375-0.1171875t-0.478515625-0.5859375q0-1.796875-0.13671875-3.818359375t-0.25390625-4.072265625q-0.1953125-2.71484375-0.517578125-5.517578125t-0.322265625-5.478515625q0-0.1171875,0.01953125-0.244140625t0.01953125-0.283203125q-0.1171875-0.1953125-0.263671875-0.41015625t-0.146484375-0.390625z M37.8841796875,47.71484375q0-1.328125,0.361328125-2.55859375t1.083984375-2.197265625t1.806640625-1.54296875t2.509765625-0.576171875q0.87890625,0,1.943359375,0.263671875t2.001953125,0.78125t1.5625,1.318359375t0.625,1.8359375q0,0.48828125-0.166015625,0.7421875t-0.673828125,0.25390625l-0.21484375-0.0390625q0.56640625,1.5234375,0.9765625,3.125t0.80078125,3.203125q0.15625,0.3125,0.234375,0.556640625t0.078125,0.478515625q0,0.3125-0.17578125,0.517578125t-0.458984375,0.302734375t-0.5859375,0.13671875t-0.537109375,0.0390625q-0.83984375,0-1.259765625-0.29296875t-0.60546875-0.80078125t-0.224609375-1.142578125t-0.15625-1.279296875q-0.234375,0.76171875-0.615234375,1.484375t-0.8984375,1.298828125t-1.220703125,0.91796875t-1.58203125,0.341796875q-1.2890625,0-2.16796875-0.7421875t-1.416015625-1.826171875t-0.78125-2.314453125t-0.244140625-2.28515625z M40.6576171875,47.44140625q0,0.72265625,0.09765625,1.5234375t0.322265625,1.58203125t0.576171875,1.474609375t0.87890625,1.220703125q0.95703125-1.03515625,1.416015625-2.51953125t0.8203125-2.861328125t0.8203125-2.36328125t1.416015625-0.986328125q0.60546875,0,1.015625,0.21484375q-0.1953125-0.48828125-0.64453125-0.947265625t-1.005859375-0.83984375t-1.15234375-0.625t-1.123046875-0.244140625q-0.15625,0-0.361328125,0.048828125t-0.322265625,0.009765625q-0.80078125,0.234375-1.318359375,0.810546875t-0.83984375,1.357421875t-0.458984375,1.6015625t-0.13671875,1.54296875z M54.010546875,40.44921875q0-0.15625,0.185546875-0.283203125t0.419921875-0.185546875t0.478515625-0.078125t0.361328125-0.01953125q0.87890625,0,1.50390625,0.78125t1.083984375,2.001953125t0.78125,2.6953125t0.615234375,2.939453125t0.576171875,2.685546875t0.634765625,1.884765625q0.60546875-1.19140625,1.103515625-2.87109375t0.91796875-3.4765625t0.7421875-3.544921875t0.517578125-3.056640625q0.078125-0.3515625,0.48828125-0.439453125t0.68359375-0.087890625q0.44921875,0,0.78125,0.126953125t0.33203125,0.556640625q0,0.72265625-0.17578125,1.962890625t-0.478515625,2.783203125t-0.703125,3.1640625t-0.859375,3.076171875t-0.95703125,2.578125t-0.986328125,1.591796875q-0.234375,0.2734375-0.732421875,0.380859375t-0.830078125,0.107421875q-1.15234375,0-1.9140625-0.60546875l0,0.0390625q-1.19140625-1.11328125-1.7578125-2.71484375t-0.8203125-3.33984375t-0.458984375-3.45703125t-0.693359375-3.125q-0.078125-0.15625-0.1953125-0.458984375t-0.2734375-0.60546875t-0.263671875-0.576171875t-0.107421875-0.4296875z M69.4142578125,47.48046875q0-1.5234375,0.322265625-2.763671875t1.025390625-2.099609375t1.845703125-1.337890625t2.783203125-0.478515625q0.91796875,0,1.875,0.244140625t1.640625,0.908203125q0-0.390625,0.078125-1.611328125t0.1953125-2.841796875t0.244140625-3.3984375t0.224609375-3.30078125t0.17578125-2.55859375t0.1171875-1.171875q0.1953125-0.56640625,0.72265625-0.673828125t0.99609375-0.107421875q1.23046875,0,1.513671875,0.390625t0.283203125,1.5625q0,4.27734375-0.380859375,8.515625t-0.380859375,8.515625q0,2.75390625,0.107421875,5.537109375t0.771484375,5.478515625l0.21484375,0.1953125l0.1171875,0.3515625l-0.29296875,0.44921875q-0.7421875,0.46875-1.71875,0.46875l-0.078125,0q-0.99609375,0-1.8359375-0.46875q-0.3125-0.1953125-0.517578125-1.162109375t-0.322265625-2.12890625t-0.17578125-2.236328125t-0.09765625-1.5234375q-0.68359375,1.5625-1.865234375,2.685546875t-2.978515625,1.123046875q-1.40625,0-2.3046875-0.60546875t-1.396484375-1.54296875t-0.703125-2.099609375t-0.205078125-2.314453125z M71.7775390625,47.59765625q0,0.44921875,0.107421875,1.328125t0.341796875,1.7578125t0.654296875,1.5625t1.103515625,0.68359375q0.91796875-0.44921875,1.66015625-1.494140625t1.279296875-2.3046875t0.83984375-2.51953125t0.302734375-2.177734375q0-1.15234375-0.83984375-1.9140625t-2.01171875-0.76171875q-0.3515625,0-0.712890625,0.13671875t-0.673828125,0.3125q-0.72265625,0.68359375-1.123046875,1.240234375t-0.60546875,1.15234375t-0.263671875,1.318359375t-0.05859375,1.6796875z M87.90390625,48.515625q0-1.3671875,0.302734375-3.22265625t1.025390625-3.515625t1.904296875-2.822265625t2.978515625-1.162109375q1.6796875,0,2.51953125,0.966796875t0.83984375,2.607421875q0,1.07421875-0.400390625,2.353515625t-1.142578125,2.421875t-1.7578125,1.904296875t-2.265625,0.76171875l-0.5078125-0.0390625q0,0.52734375,0.15625,1.416015625t0.458984375,1.767578125t0.78125,1.54296875t1.162109375,0.6640625q0.99609375,0,1.9140625-0.80078125t1.73828125-1.77734375t1.5234375-1.77734375t1.2890625-0.80078125q0.3125,0,0.64453125,0.09765625t0.37109375,0.546875q0,0.2734375-0.146484375,0.44921875t-0.263671875,0.390625q-0.60546875,1.03515625-1.318359375,1.97265625t-1.611328125,1.69921875t-1.962890625,1.201171875t-2.353515625,0.439453125q-1.6796875,0-2.79296875-0.595703125t-1.796875-1.6015625t-0.986328125-2.32421875t-0.302734375-2.763671875z M91.4,47.03125l0.546875,0.48828125q0.390625,0.3515625,0.78125,0.15625t0.703125-0.712890625t0.576171875-1.279296875t0.46875-1.5625t0.302734375-1.5625t0.09765625-1.26953125l0-0.6640625t-0.05859375-0.703125t-0.205078125-0.556640625t-0.458984375-0.283203125q-0.09765625-0.01953125-0.17578125-0.01953125q-0.6640625,0-1.1328125,0.83984375q-0.5078125,0.9375-0.8203125,2.275390625t-0.44921875,2.744140625t-0.17578125,2.109375z M104.2255859375,48.515625q0-1.3671875,0.302734375-3.22265625t1.025390625-3.515625t1.904296875-2.822265625t2.978515625-1.162109375q1.6796875,0,2.51953125,0.966796875t0.83984375,2.607421875q0,1.07421875-0.400390625,2.353515625t-1.142578125,2.421875t-1.7578125,1.904296875t-2.265625,0.76171875l-0.5078125-0.0390625q0,0.52734375,0.15625,1.416015625t0.458984375,1.767578125t0.78125,1.54296875t1.162109375,0.6640625q0.99609375,0,1.9140625-0.80078125t1.73828125-1.77734375t1.5234375-1.77734375t1.2890625-0.80078125q0.3125,0,0.64453125,0.09765625t0.37109375,0.546875q0,0.2734375-0.146484375,0.44921875t-0.263671875,0.390625q-0.60546875,1.03515625-1.318359375,1.97265625t-1.611328125,1.69921875t-1.962890625,1.201171875t-2.353515625,0.439453125q-1.6796875,0-2.79296875-0.595703125t-1.796875-1.6015625t-0.986328125-2.32421875t-0.302734375-2.763671875z M107.7216796875,47.03125l0.546875,0.48828125q0.390625,0.3515625,0.78125,0.15625t0.703125-0.712890625t0.576171875-1.279296875t0.46875-1.5625t0.302734375-1.5625t0.09765625-1.26953125l0-0.6640625t-0.05859375-0.703125t-0.205078125-0.556640625t-0.458984375-0.283203125q-0.09765625-0.01953125-0.17578125-0.01953125q-0.6640625,0-1.1328125,0.83984375q-0.5078125,0.9375-0.8203125,2.275390625t-0.44921875,2.744140625t-0.17578125,2.109375z M120.547265625,40.64453125q0-0.91796875,0.361328125-1.357421875t1.318359375-0.439453125q0.56640625,0,1.064453125,0.234375t0.498046875,0.99609375q0.078125,1.11328125,0.078125,2.333984375t0.21484375,2.314453125q0.48828125-0.80078125,1.103515625-1.6015625t1.357421875-1.42578125t1.62109375-1.005859375t1.9140625-0.380859375q1.40625,0,2.3828125,0.5859375t1.611328125,1.5234375t0.91796875,2.119140625t0.283203125,2.373046875q0,1.8359375-0.556640625,2.998046875t-1.474609375,1.826171875t-2.080078125,0.8984375t-2.333984375,0.234375q-1.03515625,0-1.93359375-0.400390625t-1.25-1.513671875q0-0.3125,0.458984375-0.390625t0.654296875-0.078125q0.64453125,0,0.95703125,0.3515625q0.234375,0.2734375,0.517578125,0.556640625t0.595703125,0.283203125q0.60546875,0,1.26953125-0.341796875t1.220703125-0.8984375t0.9375-1.318359375t0.380859375-1.5625q0-0.68359375-0.1171875-1.69921875t-0.400390625-1.953125t-0.78125-1.62109375t-1.259765625-0.68359375q-1.15234375,0-2.080078125,1.0546875t-1.54296875,2.5390625t-0.95703125,3.0859375t-0.341796875,2.67578125t0.13671875,2.71484375t0.283203125,3.408203125t0.283203125,3.408203125t0.13671875,2.71484375q0,0.2734375-0.224609375,0.439453125t-0.537109375,0.263671875t-0.634765625,0.1171875t-0.478515625,0.01953125q-0.52734375,0-1.103515625-0.1171875t-0.791015625-0.72265625q-0.2734375-0.95703125-0.5078125-2.724609375t-0.419921875-3.90625t-0.322265625-4.4921875t-0.234375-4.541015625t-0.146484375-4.00390625t-0.048828125-2.890625z M139.2712890625,33.3203125q0.1953125-0.91796875,0.859375-1.85546875t1.26953125-1.77734375q0.3515625-0.52734375,0.771484375-1.2109375t0.859375-1.279296875t0.986328125-0.99609375t1.1328125-0.400390625l0.2734375,0q0.25390625,0,0.556640625,0.078125t0.556640625,0.244140625t0.25390625,0.478515625q0,0.390625-0.29296875,0.87890625t-0.48828125,0.83984375q-1.03515625,1.875-1.66015625,3.037109375t-1.103515625,1.826171875t-0.91796875,0.8984375t-1.162109375,0.234375q-0.3515625,0-0.8203125-0.078125t-0.78125-0.390625q-0.2734375-0.1953125-0.29296875-0.52734375z M150.78828125,42.67578125q0-0.80078125,0.46875-1.376953125t1.142578125-0.9375t1.474609375-0.537109375t1.484375-0.17578125q0.52734375,0,1.40625,0.15625t1.71875,0.46875t1.455078125,0.8203125t0.615234375,1.19140625q0,0.3125-0.234375,0.556640625t-0.48828125,0.244140625q-0.52734375,0-0.95703125-0.341796875t-0.888671875-0.72265625t-1.005859375-0.72265625t-1.23046875-0.341796875t-1.240234375,0.439453125t-0.556640625,1.162109375q0,1.19140625,0.83984375,2.333984375t1.845703125,2.40234375t1.845703125,2.646484375t0.83984375,3.06640625q0,0.72265625-0.302734375,1.220703125t-0.80078125,0.810546875t-1.123046875,0.478515625t-1.2109375,0.166015625q-0.64453125,0-1.50390625-0.302734375t-1.62109375-0.80078125t-1.279296875-1.162109375t-0.517578125-1.38671875q0-0.3515625,0.498046875-0.44921875t0.732421875-0.09765625q0.1171875,0,0.361328125,0.078125t0.478515625,0.17578125t0.419921875,0.21484375t0.146484375,0.25390625q0.1953125,0.234375,0.595703125,0.693359375t0.80078125,0.7421875t0.703125,0.205078125t0.302734375-0.87890625q0-1.5234375-0.8203125-2.802734375t-1.787109375-2.5t-1.787109375-2.421875t-0.8203125-2.568359375z M172.201171875,38.359375q0-1.2890625,0.107421875-2.822265625t0.380859375-3.076171875t0.8203125-2.978515625t1.40625-2.55859375t2.099609375-1.787109375t2.958984375-0.6640625q1.3671875,0,2.51953125,0.52734375t2.01171875,1.42578125t1.337890625,2.099609375t0.478515625,2.509765625q0,0.3515625-0.478515625,0.439453125t-0.673828125,0.087890625q-0.3515625,0-0.673828125-0.05859375t-0.478515625-0.46875q-0.2734375-0.76171875-0.576171875-1.6015625t-0.7421875-1.533203125t-1.083984375-1.142578125q-0.5859375-0.390625-1.484375-0.390625l-0.15625,0q-1.640625,0.0390625-2.44140625,1.171875t-1.103515625,2.75390625t-0.302734375,3.4375l0,3.22265625q0,0.80078125,0.05859375,2.32421875t0.283203125,3.3203125t0.5859375,3.662109375t0.9765625,3.3984375t1.474609375,2.5t2.0703125,0.966796875q1.07421875,0,1.875-0.7421875t1.376953125-1.904296875t0.9765625-2.59765625t0.6640625-2.880859375t0.400390625-2.685546875t0.21484375-2.041015625q-0.21484375-0.01953125-0.41015625-0.01953125q-0.91796875,0-1.796875,0.29296875q-1.11328125,0.33203125-2.2265625,0.33203125q-0.15625,0-0.419921875-0.01953125t-0.498046875-0.09765625t-0.419921875-0.224609375t-0.185546875-0.380859375q0-0.44921875,0.986328125-0.76171875t2.24609375-0.537109375t2.431640625-0.322265625t1.54296875-0.09765625q0.1953125,0,0.556640625,0.0390625t0.72265625,0.13671875t0.615234375,0.283203125t0.25390625,0.458984375q0,0.234375-0.17578125,0.419921875t-0.439453125,0.283203125t-0.537109375,0.13671875t-0.4296875,0.0390625q0.01953125,0.44921875,0.01953125,0.91796875q0,1.0546875-0.05859375,2.24609375q-0.09765625,1.71875-0.390625,3.4375t-0.8984375,3.33984375t-1.54296875,2.861328125t-2.314453125,2.001953125t-3.271484375,0.76171875q-2.0703125,0-3.49609375-0.87890625t-2.32421875-2.34375t-1.396484375-3.3203125t-0.712890625-3.798828125t-0.263671875-3.779296875t-0.048828125-3.3203125z M194.4798828125,42.24609375q0-0.80078125,0.283203125-1.34765625t1.201171875-0.546875q0.3515625,0,0.87890625,0.107421875t0.60546875,0.537109375q0.1953125,1.15234375,0.21484375,2.5t0.13671875,2.5390625q0.44921875-0.87890625,1.15234375-1.89453125t1.6015625-1.875t1.953125-1.42578125t2.1484375-0.56640625q0.078125,0,0.29296875,0.05859375t0.400390625,0.166015625t0.224609375,0.244140625t-0.21484375,0.25390625q-0.078125,0.234375-0.33203125,0.283203125t-0.44921875,0.048828125q-0.1171875,0-0.37109375-0.09765625q-1.4453125,0.76171875-2.4609375,2.0703125t-1.66015625,2.900390625t-0.9375,3.359375t-0.29296875,3.447265625q0,0.83984375-0.380859375,1.015625t-1.220703125,0.17578125q-0.44921875,0-0.947265625-0.09765625t-0.693359375-0.625q-0.3515625-1.11328125-0.576171875-2.55859375t-0.341796875-2.978515625t-0.166015625-3.017578125t-0.048828125-2.67578125z M208.36015625,47.24609375q0-1.796875,0.419921875-3.525390625t0.712890625-3.447265625q0.078125-0.44921875,0.615234375-0.556640625t0.908203125-0.107421875q0.64453125,0,1.03515625,0.1953125q0.15625,0.078125,0.29296875,0.17578125t0.13671875,0.25390625q0,1.6796875-0.400390625,3.28125t-0.400390625,3.3984375q0,0.60546875,0.087890625,1.142578125t0.166015625,1.064453125l0.1171875,0.56640625q0,0.15625,0.01953125,0.2734375t0.05859375,0.2734375q0,0.3515625-0.498046875,0.478515625t-0.869140625,0.126953125q-0.56640625,0-1.044921875-0.224609375t-0.751953125-0.771484375l-0.2734375-0.56640625q-0.234375-0.44921875-0.234375-1.005859375t-0.09765625-1.025390625z M209.61015625,35.48828125l0-0.37109375q0-0.91796875,0.458984375-1.640625t1.376953125-0.72265625q0.1171875,0,0.224609375,0.01953125t0.224609375,0.01953125q0.234375,0.0390625,0.615234375,0.185546875t0.380859375,0.458984375l0,0.0390625q-0.078125,0.15625-0.09765625,0.322265625t-0.09765625,0.283203125l0.0390625-0.0390625q-0.234375,0.60546875-0.380859375,0.9765625t-0.322265625,0.595703125t-0.439453125,0.322265625t-0.751953125,0.09765625q-0.078125,0-0.2734375-0.01953125t-0.419921875-0.078125t-0.380859375-0.15625t-0.15625-0.29296875z M216.8888671875,54.6484375q0-0.56640625,0.048828125-1.19140625t0.087890625-1.171875l0.1171875-2.9296875q0.1953125-3.515625,0.478515625-6.9140625t0.478515625-6.875q0.1171875-1.9140625,0.17578125-3.759765625t0.17578125-3.759765625q-0.078125-0.15625-0.078125-0.21484375q0-0.2734375,0.205078125-0.4296875t0.478515625-0.263671875t0.576171875-0.146484375t0.458984375-0.0390625l0.44921875,0q0.60546875,0.078125,0.87890625,0.380859375t0.3515625,0.72265625t0.0390625,0.8984375t-0.0390625,0.888671875q0,2.83203125-0.13671875,5.771484375t-0.3125,5.8984375t-0.322265625,5.91796875t-0.146484375,5.849609375l0,1.3671875q0,0.91796875-0.517578125,1.2109375t-1.435546875,0.29296875q-0.80078125,0-1.40625-0.3515625t-0.60546875-1.15234375z M225.847265625,54.6484375q0-0.56640625,0.048828125-1.19140625t0.087890625-1.171875l0.1171875-2.9296875q0.1953125-3.515625,0.478515625-6.9140625t0.478515625-6.875q0.1171875-1.9140625,0.17578125-3.759765625t0.17578125-3.759765625q-0.078125-0.15625-0.078125-0.21484375q0-0.2734375,0.205078125-0.4296875t0.478515625-0.263671875t0.576171875-0.146484375t0.458984375-0.0390625l0.44921875,0q0.60546875,0.078125,0.87890625,0.380859375t0.3515625,0.72265625t0.0390625,0.8984375t-0.0390625,0.888671875q0,2.83203125-0.13671875,5.771484375t-0.3125,5.8984375t-0.322265625,5.91796875t-0.146484375,5.849609375l0,1.3671875q0,0.91796875-0.517578125,1.2109375t-1.435546875,0.29296875q-0.80078125,0-1.40625-0.3515625t-0.60546875-1.15234375z"/><path fill="#" d=""/></svg>
